# This file uses centimeters as units for non-parametric coordinates.

mtllib carwheel.mtl
g default
v -8.048767 -0.000004 -15.653320
v 8.048706 0.000004 -15.653320
v -8.048767 5.353734 -14.709717
v 8.048706 5.353733 -14.709717
v -8.048767 10.061733 -11.991211
v 8.048706 10.061733 -11.991211
v -8.048767 13.556141 -7.826782
v 8.048706 13.556141 -7.826782
v -8.048767 15.415471 -2.718384
v 8.048706 15.415470 -2.718384
v -8.048767 15.415471 2.717773
v 8.048706 15.415470 2.717773
v -8.048767 13.556141 7.826538
v 8.048706 13.556141 7.826538
v -8.048767 10.061733 11.991089
v 8.048706 10.061733 11.991089
v -8.048767 5.353734 14.709106
v 8.048706 5.353733 14.709106
v -8.048767 -0.000004 15.653076
v 8.048706 0.000004 15.653076
v -8.048767 -5.353734 14.709473
v 8.048706 -5.353733 14.709473
v -8.048767 -10.061726 11.991089
v 8.048706 -10.061726 11.991089
v -8.048767 -13.556133 7.826538
v 8.048706 -13.556133 7.826538
v -8.048767 -15.415471 2.718140
v 8.048706 -15.415470 2.718140
v -8.048767 -15.415471 -2.718018
v 8.048706 -15.415470 -2.718018
v -8.048767 -13.556133 -7.826782
v 8.048706 -13.556133 -7.826782
v -8.048767 -10.061726 -11.991211
v 8.048706 -10.061726 -11.991211
v -8.048767 -5.353734 -14.709351
v 8.048706 -5.353733 -14.709351
v -8.048767 -0.000008 -0.000244
v 8.048706 0.000000 -0.000244
vn 0.000000 0.173648 -0.984808
vn 0.000000 0.173648 -0.984808
vn 0.000000 0.173648 -0.984808
vn 0.000000 0.173648 -0.984808
vn 0.000000 0.500000 -0.866025
vn 0.000000 0.500000 -0.866025
vn 0.000000 0.500000 -0.866025
vn 0.000000 0.500000 -0.866025
vn 0.000000 0.766044 -0.642788
vn 0.000000 0.766044 -0.642788
vn 0.000000 0.766044 -0.642788
vn 0.000000 0.766044 -0.642788
vn 0.000000 0.939693 -0.342020
vn 0.000000 0.939693 -0.342020
vn 0.000000 0.939693 -0.342020
vn 0.000000 0.939693 -0.342020
vn 0.000000 1.000000 0.000000
vn 0.000000 1.000000 0.000000
vn 0.000000 1.000000 0.000000
vn 0.000000 1.000000 0.000000
vn 0.000000 0.939693 0.342020
vn 0.000000 0.939693 0.342020
vn 0.000000 0.939693 0.342020
vn 0.000000 0.939693 0.342020
vn 0.000000 0.766044 0.642788
vn 0.000000 0.766044 0.642788
vn 0.000000 0.766044 0.642788
vn 0.000000 0.766044 0.642788
vn 0.000000 0.500000 0.866025
vn 0.000000 0.500000 0.866025
vn 0.000000 0.500000 0.866025
vn 0.000000 0.500000 0.866025
vn 0.000000 0.173648 0.984808
vn 0.000000 0.173648 0.984808
vn 0.000000 0.173648 0.984808
vn 0.000000 0.173648 0.984808
vn -0.000000 -0.173648 0.984808
vn -0.000000 -0.173648 0.984808
vn -0.000000 -0.173648 0.984808
vn -0.000000 -0.173648 0.984808
vn 0.000000 -0.500000 0.866025
vn 0.000000 -0.500000 0.866025
vn 0.000000 -0.500000 0.866025
vn 0.000000 -0.500000 0.866025
vn 0.000000 -0.766044 0.642788
vn 0.000000 -0.766044 0.642788
vn 0.000000 -0.766044 0.642788
vn 0.000000 -0.766044 0.642788
vn 0.000000 -0.939693 0.342020
vn 0.000000 -0.939693 0.342020
vn 0.000000 -0.939693 0.342020
vn 0.000000 -0.939693 0.342020
vn 0.000000 -1.000000 0.000000
vn 0.000000 -1.000000 0.000000
vn 0.000000 -1.000000 0.000000
vn 0.000000 -1.000000 0.000000
vn 0.000000 -0.939693 -0.342020
vn 0.000000 -0.939693 -0.342020
vn 0.000000 -0.939693 -0.342020
vn 0.000000 -0.939693 -0.342020
vn 0.000000 -0.766044 -0.642788
vn 0.000000 -0.766044 -0.642788
vn 0.000000 -0.766044 -0.642788
vn 0.000000 -0.766044 -0.642788
vn 0.000000 -0.500000 -0.866025
vn 0.000000 -0.500000 -0.866025
vn 0.000000 -0.500000 -0.866025
vn 0.000000 -0.500000 -0.866025
vn -0.000000 -0.173648 -0.984808
vn -0.000000 -0.173648 -0.984808
vn -0.000000 -0.173648 -0.984808
vn -0.000000 -0.173648 -0.984808
vn -1.000000 0.000000 -0.000000
vn -1.000000 0.000000 -0.000000
vn -1.000000 0.000000 -0.000000
vn -1.000000 0.000000 -0.000000
vn -1.000000 0.000000 -0.000000
vn -1.000000 0.000000 -0.000000
vn -1.000000 0.000000 -0.000000
vn -1.000000 0.000000 -0.000000
vn -1.000000 0.000000 -0.000000
vn -1.000000 0.000000 -0.000000
vn -1.000000 0.000000 -0.000000
vn -1.000000 0.000000 -0.000000
vn -1.000000 0.000000 0.000000
vn -1.000000 0.000000 0.000000
vn -1.000000 0.000000 0.000000
vn -1.000000 0.000000 0.000000
vn -1.000000 0.000000 0.000000
vn -1.000000 0.000000 0.000000
vn -1.000000 0.000000 0.000000
vn -1.000000 0.000000 0.000000
vn -1.000000 0.000000 0.000000
vn -1.000000 0.000000 0.000000
vn -1.000000 0.000000 0.000000
vn -1.000000 0.000000 0.000000
vn -1.000000 0.000000 0.000000
vn -1.000000 0.000000 0.000000
vn -1.000000 0.000000 0.000000
vn -1.000000 0.000000 0.000000
vn -1.000000 0.000000 0.000000
vn -1.000000 0.000000 0.000000
vn -1.000000 0.000000 0.000000
vn -1.000000 0.000000 0.000000
vn -1.000000 0.000000 0.000000
vn -1.000000 0.000000 0.000000
vn -1.000000 0.000000 0.000000
vn -1.000000 0.000000 0.000000
vn -1.000000 0.000000 0.000000
vn -1.000000 0.000000 0.000000
vn -1.000000 0.000000 0.000000
vn -1.000000 -0.000000 -0.000000
vn -1.000000 -0.000000 -0.000000
vn -1.000000 -0.000000 -0.000000
vn -1.000000 -0.000000 -0.000000
vn -1.000000 -0.000000 -0.000000
vn -1.000000 -0.000000 -0.000000
vn -1.000000 -0.000000 -0.000000
vn -1.000000 -0.000000 -0.000000
vn -1.000000 -0.000000 -0.000000
vn -1.000000 -0.000000 -0.000000
vn -1.000000 -0.000000 -0.000000
vn -1.000000 -0.000000 -0.000000
vn -1.000000 -0.000000 -0.000000
vn -1.000000 -0.000000 -0.000000
vn -1.000000 -0.000000 -0.000000
vn 1.000000 -0.000000 0.000000
vn 1.000000 -0.000000 0.000000
vn 1.000000 -0.000000 0.000000
vn 1.000000 -0.000000 0.000000
vn 1.000000 -0.000000 0.000000
vn 1.000000 -0.000000 0.000000
vn 1.000000 0.000000 0.000000
vn 1.000000 0.000000 0.000000
vn 1.000000 0.000000 0.000000
vn 1.000000 0.000000 0.000000
vn 1.000000 0.000000 0.000000
vn 1.000000 0.000000 0.000000
vn 1.000000 0.000000 0.000000
vn 1.000000 0.000000 0.000000
vn 1.000000 0.000000 0.000000
vn 1.000000 0.000000 0.000000
vn 1.000000 0.000000 0.000000
vn 1.000000 0.000000 0.000000
vn 1.000000 0.000000 0.000000
vn 1.000000 0.000000 0.000000
vn 1.000000 0.000000 0.000000
vn 1.000000 0.000000 0.000000
vn 1.000000 0.000000 0.000000
vn 1.000000 0.000000 0.000000
vn 1.000000 0.000000 0.000000
vn 1.000000 0.000000 0.000000
vn 1.000000 0.000000 0.000000
vn 1.000000 0.000000 0.000000
vn 1.000000 0.000000 0.000000
vn 1.000000 0.000000 0.000000
vn 1.000000 0.000000 0.000000
vn 1.000000 0.000000 0.000000
vn 1.000000 0.000000 0.000000
vn 1.000000 0.000000 0.000000
vn 1.000000 0.000000 0.000000
vn 1.000000 0.000000 0.000000
vn 1.000000 0.000000 0.000000
vn 1.000000 0.000000 0.000000
vn 1.000000 0.000000 0.000000
vn 1.000000 0.000000 0.000000
vn 1.000000 0.000000 0.000000
vn 1.000000 0.000000 0.000000
vn 1.000000 0.000000 0.000000
vn 1.000000 0.000000 0.000000
vn 1.000000 0.000000 0.000000
vn 1.000000 -0.000000 0.000000
vn 1.000000 -0.000000 0.000000
vn 1.000000 -0.000000 0.000000
vn 1.000000 0.000000 0.000000
vn 1.000000 0.000000 0.000000
vn 1.000000 0.000000 0.000000
vn 1.000000 0.000000 0.000000
vn 1.000000 0.000000 0.000000
vn 1.000000 0.000000 0.000000
s off
g wheel
usemtl initialShadingGroup
f 3//1 4//2 2//3 1//4
f 5//5 6//6 4//7 3//8
f 7//9 8//10 6//11 5//12
f 9//13 10//14 8//15 7//16
f 11//17 12//18 10//19 9//20
f 13//21 14//22 12//23 11//24
f 15//25 16//26 14//27 13//28
f 17//29 18//30 16//31 15//32
f 19//33 20//34 18//35 17//36
f 21//37 22//38 20//39 19//40
f 23//41 24//42 22//43 21//44
f 25//45 26//46 24//47 23//48
f 27//49 28//50 26//51 25//52
f 29//53 30//54 28//55 27//56
f 31//57 32//58 30//59 29//60
f 33//61 34//62 32//63 31//64
f 35//65 36//66 34//67 33//68
f 1//69 2//70 36//71 35//72
f 3//73 1//74 37//75
f 5//76 3//77 37//78
f 7//79 5//80 37//81
f 9//82 7//83 37//84
f 11//85 9//86 37//87
f 13//88 11//89 37//90
f 15//91 13//92 37//93
f 17//94 15//95 37//96
f 19//97 17//98 37//99
f 21//100 19//101 37//102
f 23//103 21//104 37//105
f 25//106 23//107 37//108
f 27//109 25//110 37//111
f 29//112 27//113 37//114
f 31//115 29//116 37//117
f 33//118 31//119 37//120
f 35//121 33//122 37//123
f 1//124 35//125 37//126
f 4//127 38//128 2//129
f 6//130 38//131 4//132
f 8//133 38//134 6//135
f 10//136 38//137 8//138
f 12//139 38//140 10//141
f 14//142 38//143 12//144
f 16//145 38//146 14//147
f 18//148 38//149 16//150
f 20//151 38//152 18//153
f 22//154 38//155 20//156
f 24//157 38//158 22//159
f 26//160 38//161 24//162
f 28//163 38//164 26//165
f 30//166 38//167 28//168
f 32//169 38//170 30//171
f 34//172 38//173 32//174
f 36//175 38//176 34//177
f 2//178 38//179 36//180
