<?xml version="1.0" encoding="UTF-8"?>
<svg id="_圖層_1" data-name="圖層 1" xmlns="http://www.w3.org/2000/svg" viewBox="0 0 512 512">
  <path fill="#F3D1B2" d="M0,273.95c0-12.33,0-24.67,0-37,1.1-7.86,1.99-15.76,3.34-23.57,8.79-50.69,30.53-95.05,65.83-132.51C107.81,39.86,154.87,14.02,210.42,3.99c9.14-1.65,18.38-2.71,27.58-4.04,12,0,24,0,36,0,5.92,.75,11.85,1.41,17.76,2.27,49.28,7.22,93.15,26.62,130.82,59.25,45.89,39.75,74.72,89.48,85.46,149.42,1.61,8.97,2.66,18.03,3.96,27.05v36c-1.08,8.05-1.91,16.15-3.29,24.15-8.58,49.8-29.62,93.6-63.92,130.78-39.06,42.34-86.89,68.99-143.73,79.1-8.97,1.6-18.04,2.66-27.06,3.97h-36c-8.22-1.12-16.48-1.97-24.64-3.39-50.87-8.83-95.36-30.7-132.88-66.21C39.7,403.76,13.96,356.83,4.02,301.45c-1.63-9.11-2.7-18.33-4.02-27.5ZM256.04,59.95c-107.59-.05-195.66,87.87-196.04,195.71-.37,107.57,88.14,196.24,195.95,196.31,107.58,.07,195.66-87.86,196.05-195.72,.39-107.59-88.11-196.24-195.96-196.29Z"/>
  <path fill="#F3D1B2" d="M90.01,255.96c0-91.78,74.28-166.02,166.11-165.99,91.74,.02,165.91,74.35,165.86,166.22-.04,91.68-74.44,165.82-166.34,165.75-91.42-.06-165.63-74.42-165.63-165.98Zm103.9,40.43c-.07,1.53-.18,2.52-.15,3.5,.7,23.15,18.94,44.82,42.52,49.83,4.22,.9,4.87,2.54,4.77,6.22-.23,8.27-.07,16.55-.07,24.85h30.03c0-9.03,.11-17.67-.06-26.31-.06-2.89,.84-3.96,3.75-4.53,25.14-4.96,43.16-26.93,43.71-53.01,.53-25.23-16.67-48.35-41.3-53.83-9.28-2.06-19.14-1.81-28.75-2.1-13.3-.41-24.05-10.27-25.17-23.65-1.06-12.68,8.49-24.87,21.48-26.36,7.22-.83,14.66-.83,21.9-.13,11.28,1.09,19.12,8.77,21.57,19.8,.35,1.59,.77,3.17,1.16,4.78h28.85c.55-10.08-2.27-18.98-7.11-27.28-8.94-15.32-22.59-23.96-40.26-27.21v-29.93h-29.87v29.97c-1.47,.37-2.41,.66-3.37,.86-23.18,4.64-41.58,25.02-43.69,47.36-2.95,31.2,17.39,51.58,35.52,58.13,11.32,4.09,22.9,3.51,34.52,3.63,13.22,.14,24,10.45,24.94,23.81,.89,12.53-8.56,24.57-21.24,26.1-6.9,.83-13.99,.93-20.92,.37-12.28-.99-20.29-8.62-22.98-20.75-.31-1.4-.72-2.78-1.07-4.12h-28.69Z"/>
</svg>