<?xml version="1.0" encoding="UTF-8"?>
<svg id="_圖層_1" data-name="圖層 1" xmlns="http://www.w3.org/2000/svg" viewBox="0 0 512 512">
  <path fill="#F3D1B2" d="M271.27,501.33h-30.67c-4.06-.64-8.1-1.38-12.17-1.9-24.81-3.17-48.03-11.18-69.74-23.42-32.28-18.21-57.71-43.44-76.13-75.64-15.95-27.89-24.62-57.94-25.88-90.02-1.37-34.93,5.72-68.06,21.84-99.21,16.03-30.99,38.52-56.25,67.59-75.45,28.15-18.6,59.08-29.52,92.86-32.3,40.05-3.29,77.82,4.43,112.89,23.88,38.41,21.3,67.02,52.03,85.41,92.05,18.4,40.03,22.73,81.71,13.58,124.63-9.02,42.31-30.09,77.9-62.35,106.73-26.97,24.1-58.18,39.89-93.75,46.82-7.78,1.51-15.64,2.56-23.47,3.82Zm-38.11-299.09c-.09,1.49-.23,2.73-.23,3.98-.01,35.12,.04,70.24-.09,105.36-.01,3.06,1.34,4.48,3.57,6.02,36.36,25.1,72.68,50.26,109.01,75.4,1.14,.79,2.37,1.46,3.79,2.32,6.31-9.12,12.44-17.97,18.75-27.09-1.86-1.34-3.37-2.46-4.92-3.54-30.56-21.15-61.08-42.35-91.73-63.37-3.49-2.39-4.99-4.81-4.95-9.19,.22-28.25,.12-56.51,.12-84.76v-5.13h-33.31Z"/>
  <path fill="#F3D1B2" d="M307.68,60.65h-20.96v25.54h-61.41v-25.43h-20.59c-.2-1.5-.47-2.55-.47-3.6-.03-10.22-.11-20.44,.01-30.66,.12-9.48,6.59-15.79,16.1-15.8,23.8-.04,47.6-.04,71.4,0,9.59,.02,15.85,6.31,15.9,15.9,.06,11.14,.01,22.27,.01,34.05Z"/>
  <path fill="#F3D1B2" d="M397.91,127.39c-19.34-11.17-38.08-21.98-57.5-33.19,6.38-10.61,12.18-21.22,18.96-31.17,4.06-5.96,12.6-7.42,19.07-3.94,10.52,5.67,20.91,11.61,31.05,17.94,6.86,4.29,9.19,13.08,5.43,20.27-5.23,10.01-11.09,19.69-17,30.09Z"/>
</svg>