<?xml version="1.0" encoding="UTF-8"?>
<svg id="_圖層_1" data-name="圖層 1" xmlns="http://www.w3.org/2000/svg" viewBox="0 0 395.76 376.51">
  <path fill="#F3D1B2" d="M395.76,243.11v17.78c-.24,.99-.49,1.98-.72,2.97-2.09,8.99-3.13,18.39-6.43,26.91-13.83,35.76-38.92,58.98-77.47,65.34-41.63,6.87-83.32,13.43-125.11,19.25-40.45,5.63-73.04-9.66-95.85-42.62-27.45-39.67-52.92-80.72-79.1-121.26-17.92-27.75-13.77-62.51,10.01-85.41,9.93-9.56,19.96-19.01,29.96-28.49,.77-.73,1.66-1.33,2.82-2.25,3.02,19.94,5.96,39.27,8.87,58.59,.89,5.92,3.68,8.96,7.97,8.51,4.6-.48,6.81-4.06,5.88-10.18-4.74-31.42-9.63-62.83-14.28-94.26-1.24-8.38-2.78-16.87-2.58-25.27,.43-18.01,15.95-31.82,33.38-30.75,14.07,.87,27.17,12.59,29.81,27.64,3.44,19.64,6.25,39.39,9.31,59.09,1.09,6.99,2.11,13.99,3.22,20.98,.56,3.53,2.46,6,6.12,6.52,3.3,.47,5.94-1.02,7.13-4.07,.66-1.69,.65-3.82,.38-5.66-2.88-19.08-5.92-38.14-8.82-57.22-1.16-7.61-2.76-15.16-1.1-22.98,3.71-17.52,19.21-28.56,36.78-25.91,13.22,2,24.86,14.04,27.27,28.6,2.26,13.58,4.22,27.21,6.31,40.82,1.09,7.12,2.15,14.25,3.27,21.37,.56,3.51,2.4,6.02,6.09,6.55,3.31,.47,5.99-.95,7.15-4.02,.68-1.81,.63-4.07,.34-6.05-1.81-12.35-3.84-24.66-5.69-37.01-1.12-7.48-2.94-14.94-1.15-22.6,3.06-13.09,10.45-22.5,23.74-25.79,13.4-3.31,24.22,1.74,32.66,12.32,4.91,6.16,6.68,13.48,7.78,21.09,1.98,13.62,4.11,27.22,6.25,40.83,.7,4.49,4.06,7.14,8.02,6.54,3.81-.57,6.19-3.83,5.79-8.21-.23-2.56-.84-5.08-1.12-7.64-.97-9.06-3.05-18.19-2.54-27.17,1.13-20.12,20.87-34.09,39.73-28.6,14.94,4.35,22.59,15.38,24.96,30.35,3.55,22.49,7.03,45,10.49,67.51,5.3,34.46,10.56,68.93,15.83,103.4,1.55,10.14,3.09,20.29,4.64,30.43Z"/>
</svg>